<svg xmlns="http://www.w3.org/2000/svg" width="126" height="126.612" viewBox="0 0 126 126.612"><g transform="translate(192.862 727.083)"><path d="M-129.862-723.47l-60,40.241v79.759h120v-79.759Z" fill="none" stroke="#3a3933" stroke-miterlimit="10" stroke-width="6"/><path d="M-149.862-666.718v10a20,20,0,0,0,20,20,20,20,0,0,0,20-20v-10" fill="none" stroke="#3a3933" stroke-miterlimit="10" stroke-width="6"/><line x2="53.914" transform="translate(-149.862 -666.718)" fill="none" stroke="#3a3933" stroke-miterlimit="10" stroke-width="6"/><path d="M25.035,0H42.793A25.035,25.035,0,0,1,67.828,25.035v8.212a0,0,0,0,1,0,0H0a0,0,0,0,1,0,0V25.035A25.035,25.035,0,0,1,25.035,0Z" transform="translate(-163.776 -636.718)" fill="none" stroke="#3a3933" stroke-miterlimit="10" stroke-width="6"/><path d="M-104.527-683.229h-45.335v16.511h40Z" fill="none" stroke="#3a3933" stroke-miterlimit="10" stroke-width="6"/><line x1="33.645" y2="33.645" transform="translate(-154.627 -636.718)" fill="none" stroke="#3a3933" stroke-miterlimit="10" stroke-width="6"/></g></svg>